<?xml version="1.0" standalone="no"?>
<!DOCTYPE svg PUBLIC "-//W3C//DTD SVG 20010904//EN"
 "http://www.w3.org/TR/2001/REC-SVG-20010904/DTD/svg10.dtd">
<svg version="1.0" xmlns="http://www.w3.org/2000/svg"
 width="250.000000pt" height="235.000000pt" viewBox="0 0 250.000000 235.000000"
 preserveAspectRatio="xMidYMid meet">
<metadata>
Created by potrace 1.15, written by Peter Selinger 2001-2017
</metadata>
<g transform="translate(0.000000,235.000000) scale(0.100000,-0.100000)"
fill="#000000" stroke="none">
<path d="M1360 2006 c0 -8 -5 -16 -11 -18 -7 -2 -11 -31 -11 -73 0 -42 4 -71
11 -73 6 -2 11 -20 11 -40 l0 -37 -85 4 c-73 3 -85 1 -85 -13 0 -29 -40 -17
-77 22 -34 36 -37 37 -105 36 -38 0 -73 -5 -76 -11 -10 -15 -48 -33 -71 -33
-18 0 -21 6 -21 48 0 49 -13 75 -59 122 -23 22 -33 25 -105 25 -51 0 -81 -4
-83 -12 -2 -6 -15 -24 -29 -40 -28 -32 -39 -78 -31 -133 7 -51 38 -89 105
-127 26 -15 102 -17 102 -3 0 6 6 10 13 10 7 0 24 11 39 25 15 14 36 25 48 25
19 0 20 -6 20 -110 l0 -110 40 -6 40 -7 -2 -96 -3 -96 73 -3 c39 -2 72 -7 72
-12 0 -6 11 -10 25 -10 14 0 25 -4 25 -10 0 -5 22 -10 48 -10 l48 0 2 -105 3
-106 -30 -28 c-58 -54 -75 -61 -161 -61 -79 0 -80 0 -80 25 0 18 -5 25 -19 25
-18 0 -20 10 -23 183 -2 156 -6 186 -20 200 -14 14 -38 17 -147 17 -81 0 -131
4 -131 10 0 6 -68 10 -183 10 l-182 0 -33 -35 c-29 -32 -32 -42 -32 -98 0 -34
-3 -106 -7 -159 -5 -89 -8 -97 -27 -100 -17 -2 -22 -11 -24 -45 l-3 -43 155 0
156 0 0 -35 0 -35 100 0 c60 0 100 -4 100 -10 0 -6 88 -10 243 -10 l243 0 32
-28 c18 -16 32 -34 32 -40 0 -7 9 -12 20 -12 19 0 20 -7 20 -110 0 -103 -1
-110 -20 -110 -19 0 -20 -7 -20 -130 0 -123 1 -130 20 -130 19 0 20 -7 20
-140 l0 -140 65 0 65 0 0 140 c0 110 3 140 13 140 8 0 25 12 40 28 50 52 48
52 207 52 91 0 150 4 150 10 0 6 64 11 158 12 l157 3 3 33 c2 22 -2 34 -12 38
-20 8 -21 34 -1 34 8 0 15 5 15 10 0 6 18 10 40 10 38 0 40 2 40 30 0 17 -7
33 -17 39 -17 10 -17 10 0 11 28 0 24 65 -5 75 l-23 8 23 4 c28 6 31 57 5 72
-17 10 -17 10 0 11 30 0 22 56 -10 75 l-28 15 28 -6 c25 -6 27 -4 27 26 0 20
-7 38 -17 46 -17 13 -17 13 0 14 12 0 17 8 17 30 0 17 -5 30 -11 30 -6 0 -17
7 -26 15 -14 14 -13 15 11 9 24 -6 26 -4 26 25 0 23 -7 34 -27 46 l-28 15 28
-6 c25 -6 27 -4 27 29 0 27 -5 36 -22 42 l-23 8 23 4 c16 3 22 11 22 31 0 52
-9 56 -144 60 -69 3 -146 1 -171 -2 -39 -6 -45 -10 -45 -32 0 -13 -6 -24 -12
-24 -7 -1 0 -8 16 -16 l29 -16 -28 -23 c-32 -28 -30 -60 3 -59 29 1 28 -9 -3
-32 -14 -10 -25 -27 -25 -36 0 -13 8 -18 25 -18 14 0 25 -4 25 -10 0 -5 -5
-10 -11 -10 -16 0 -39 -26 -39 -44 0 -11 9 -16 28 -16 l27 0 -28 -24 c-33 -29
-33 -61 1 -60 17 0 19 -2 11 -13 -6 -7 -18 -13 -25 -13 -8 0 -14 -10 -14 -24
0 -18 8 -27 28 -34 l27 -10 -28 -11 c-35 -14 -35 -54 1 -59 26 -4 20 -22 -9
-22 -15 0 -19 -7 -19 -34 0 -30 4 -35 28 -38 l27 -4 -27 -14 c-19 -9 -28 -21
-28 -37 0 -21 4 -23 45 -23 25 0 45 -4 45 -10 0 -5 10 -10 22 -10 16 0 19 -3
11 -11 -13 -13 -404 -26 -444 -15 -13 3 -43 23 -66 44 l-43 38 0 107 0 107 25
0 25 0 0 130 0 130 -25 0 -25 0 0 115 0 115 28 6 c15 3 41 12 59 20 17 8 38
14 46 14 8 0 17 7 21 15 3 8 17 20 31 25 14 5 25 14 25 20 0 5 9 10 20 10 11
0 20 4 20 9 0 6 24 11 53 13 49 3 52 4 52 31 -1 15 5 27 12 27 19 0 16 27 -4
39 -17 10 -17 10 0 11 19 0 23 15 7 25 -5 3 -10 26 -10 51 0 41 2 44 26 44
l25 0 -3 110 -3 111 75 -3 c72 -3 75 -4 89 -33 8 -16 21 -36 29 -44 19 -19
143 -22 149 -3 3 6 10 12 17 12 21 0 46 56 46 103 0 37 -5 51 -31 76 -28 28
-36 31 -94 31 -58 0 -67 -3 -95 -30 -16 -16 -30 -34 -30 -40 0 -6 -35 -10 -91
-10 -70 0 -94 4 -107 16 -13 14 -30 16 -99 11 l-83 -6 0 25 c0 14 -6 32 -12
39 -7 8 -19 21 -26 30 -18 21 -142 22 -142 1z m100 -346 c29 0 47 6 56 18 12
15 13 12 14 -25 0 -39 2 -43 26 -43 23 0 25 -3 22 -42 -3 -42 -4 -43 -47 -50
-25 -4 -47 -11 -50 -15 -12 -16 -91 -63 -106 -63 -8 0 -15 -4 -15 -9 0 -5 -38
-12 -85 -16 -47 -4 -85 -11 -85 -16 0 -5 -16 -9 -35 -9 -19 0 -35 5 -35 10 0
6 -11 10 -25 10 -22 0 -25 4 -25 35 0 32 2 35 29 35 59 0 61 4 61 109 l0 96
102 0 c71 0 103 4 105 12 3 8 13 4 27 -12 18 -19 33 -25 66 -25z"/>
</g>
</svg>
